<?xml version="1.0" encoding="UTF-8"?>
<!DOCTYPE svg PUBLIC "-//W3C//DTD SVG 1.1//EN" "http://www.w3.org/Graphics/SVG/1.1/DTD/svg11.dtd">
<svg version="1.1" xmlns="http://www.w3.org/2000/svg" xmlns:xlink="http://www.w3.org/1999/xlink" x="0px" y="0px" width="1400" height="1020" viewBox="0, 0, 1400, 1020">
  <g id="Background">
    <rect x="0" y="0" width="1400" height="1020" fill="#000000" fill-opacity="0"/>
  </g>
  <g id="Layer 1">
    <text transform="matrix(1, 0, 0, 1, 573.104, 110)">
      <tspan x="-363.104" y="-62" font-family="PTMono-Bold" font-size="32" fill="#294270">DREAMING of apples on a wall,</tspan>
      <tspan x="-363.104" y="-26" font-family="PTMono-Bold" font-size="32" fill="#294270">And dreaming often, dear,</tspan>
      <tspan x="-363.104" y="10" font-family="PTMono-Bold" font-size="32" fill="#294270">I dreamed that, if I counted all,</tspan>
      <tspan x="-363.104" y="46" font-family="PTMono-Bold" font-size="32" fill="#294270">-How many would appear?</tspan>
    </text>
    <text transform="matrix(1, 0, 0, 1, 100, 45)">
      <tspan x="-70" y="6" font-family="HelveticaNeue-Bold" font-size="32" fill="#006CA9">Rhyme:</tspan>
    </text>
    <text transform="matrix(1, 0, 0, 1, 1045, 45)">
      <tspan x="-55" y="6" font-family="HelveticaNeue-Bold" font-size="32" fill="#006CA9">Word:</tspan>
    </text>
    <text transform="matrix(1, 0, 0, 1, 1155, 45)">
      <tspan x="-35" y="3" font-family="PTMono-Bold" font-size="32" fill="#F0801A">ten</tspan>
    </text>
    <text transform="matrix(1, 0, 0, 1, 1055, 225)">
      <tspan x="-65" y="6" font-family="HelveticaNeue-Bold" font-size="32" fill="#006CA9">Result:</tspan>
    </text>
    <text transform="matrix(1, 0, 0, 1, 510, 286.5)">
      <tspan x="-300" y="-58.5" font-family="PTMono-Bold" font-size="32" fill="#294270">DREAMINGofapplesonawall,</tspan>
      <tspan x="-300" y="-22.5" font-family="PTMono-Bold" font-size="32" fill="#294270">Anddreamingof</tspan>
      <tspan x="-50.4" y="-22.5" font-family="PTMono-Bold" font-size="32" fill="#F0801A">ten</tspan>
      <tspan x="7.2" y="-22.5" font-family="PTMono-Bold" font-size="32" fill="#294270">,dear,</tspan>
      <tspan x="-300" y="13.5" font-family="PTMono-Bold" font-size="32" fill="#294270">Idreamedthat,ifIcountedall,</tspan>
      <tspan x="-300" y="49.5" font-family="PTMono-Bold" font-size="32" fill="#294270">-Howmanywouldappear?</tspan>
    </text>
    <text transform="matrix(1, 0, 0, 1, 660, 550)">
      <tspan x="-450" y="-122" font-family="PTMono-Bold" font-size="32" fill="#294270">He took his vorpal sword in hand:</tspan>
      <tspan x="-450" y="-86" font-family="PTMono-Bold" font-size="32" fill="#294270">Long time the manxome foe he sought--</tspan>
      <tspan x="-450" y="-50" font-family="PTMono-Bold" font-size="32" fill="#294270">So rested he by the Tumtum tree,</tspan>
      <tspan x="-450" y="-14" font-family="PTMono-Bold" font-size="32" fill="#294270">And stood awhile in thought.</tspan>
      <tspan x="-450" y="22" font-family="PTMono-Bold" font-size="32" fill="#294270">And as in uffish thought he stood,</tspan>
      <tspan x="-450" y="58" font-family="PTMono-Bold" font-size="32" fill="#294270">The Jabberwock, with eyes of flame,</tspan>
      <tspan x="-450" y="94" font-family="PTMono-Bold" font-size="32" fill="#294270">Came whiffling through the tulgey wood,</tspan>
      <tspan x="-450" y="130" font-family="PTMono-Bold" font-size="32" fill="#294270">And burbled as it came!</tspan>
    </text>
    <text transform="matrix(1, 0, 0, 1, 95, 425)">
      <tspan x="-65" y="6" font-family="HelveticaNeue-Bold" font-size="32" fill="#006CA9">Rhyme:</tspan>
    </text>
    <text transform="matrix(1, 0, 0, 1, 1040, 425)">
      <tspan x="-50" y="6" font-family="HelveticaNeue-Bold" font-size="32" fill="#006CA9">Word:</tspan>
    </text>
    <text transform="matrix(1, 0, 0, 1, 1165, 427.5)">
      <tspan x="-45" y="0.5" font-family="PTMono-Bold" font-size="32" fill="#F0801A">noir</tspan>
    </text>
    <text transform="matrix(1, 0, 0, 1, 1050, 749)">
      <tspan x="-60" y="2" font-family="HelveticaNeue-Bold" font-size="32" fill="#006CA9">Result:</tspan>
    </text>
    <text transform="matrix(1, 0, 0, 1, 555, 870)">
      <tspan x="-345" y="-122" font-family="PTMono-Bold" font-size="32" fill="#294270">Hetookhisvorpalswordinhand:</tspan>
      <tspan x="-345" y="-86" font-family="PTMono-Bold" font-size="32" fill="#294270">Longtimethemanxomefoehesought--</tspan>
      <tspan x="-345" y="-50" font-family="PTMono-Bold" font-size="32" fill="#294270">SorestedhebytheTumtum tree,</tspan>
      <tspan x="-345" y="-14" font-family="PTMono-Bold" font-size="32" fill="#294270">Andstoodawhilei</tspan>
      <tspan x="-57" y="-14" font-family="PTMono-Bold" font-size="32" fill="#F0801A">n</tspan>
      <tspan x="-37.8" y="-14" font-family="PTMono-Bold" font-size="32" fill="#294270">thought.</tspan>
      <tspan x="-345" y="22" font-family="PTMono-Bold" font-size="32" fill="#294270">Andasinuffishth</tspan>
      <tspan x="-57" y="22" font-family="PTMono-Bold" font-size="32" fill="#F0801A">o</tspan>
      <tspan x="-37.8" y="22" font-family="PTMono-Bold" font-size="32" fill="#294270">ughthestood,</tspan>
      <tspan x="-345" y="58" font-family="PTMono-Bold" font-size="32" fill="#294270">TheJabberwock,w</tspan>
      <tspan x="-57" y="58" font-family="PTMono-Bold" font-size="32" fill="#F0801A">i</tspan>
      <tspan x="-37.8" y="58" font-family="PTMono-Bold" font-size="32" fill="#294270">theyesofflame,</tspan>
      <tspan x="-345" y="94" font-family="PTMono-Bold" font-size="32" fill="#294270">Camewhifflingth</tspan>
      <tspan x="-57" y="94" font-family="PTMono-Bold" font-size="32" fill="#F0801A">r</tspan>
      <tspan x="-37.8" y="94" font-family="PTMono-Bold" font-size="32" fill="#294270">oughthetulgeywood,</tspan>
      <tspan x="-345" y="130" font-family="PTMono-Bold" font-size="32" fill="#294270">Andburbledasitcame!</tspan>
    </text>
    <text transform="matrix(1, 0, 0, 1, 73.104, 229)">
      <tspan x="-43.104" y="2" font-family="HelveticaNeue-Bold" font-size="32" fill="#006CA9">Cut:</tspan>
    </text>
    <text transform="matrix(1, 0, 0, 1, 73.104, 749)">
      <tspan x="-43.104" y="2" font-family="HelveticaNeue-Bold" font-size="32" fill="#006CA9">Cut:</tspan>
    </text>
    <text transform="matrix(1, 0, 0, 1, 1245, 227.5)">
      <tspan x="-125" y="0.5" font-family="PTMono-Bold" font-size="32" fill="#294270">[1,14,1,16]</tspan>
    </text>
    <text transform="matrix(1, 0, 0, 1, 1245, 750.5)">
      <tspan x="-125" y="0.5" font-family="PTMono-Bold" font-size="32" fill="#294270">[4,16,7,16]</tspan>
    </text>
  </g>
  <defs/>
</svg>
