<?xml version="1.0" encoding="UTF-8"?>
<!DOCTYPE svg PUBLIC "-//W3C//DTD SVG 1.1//EN" "http://www.w3.org/Graphics/SVG/1.1/DTD/svg11.dtd">
<svg version="1.1" xmlns="http://www.w3.org/2000/svg" xmlns:xlink="http://www.w3.org/1999/xlink" x="0px" y="0px" width="128" height="128" viewBox="0, 0, 128, 128">
  <g id="Background">
    <rect x="0" y="0" width="128" height="128" fill="#000000" fill-opacity="0"/>
  </g>
  <g id="Background">
    <path d="M18.093,6 L109.907,6 C116.561,6 122,11.439 122,18.093 L122,109.907 C122,116.561 116.561,122 109.907,122 L18.093,122 C11.439,122 6,116.561 6,109.907 L6,18.093 C6,11.439 11.439,6 18.093,6" fill="#727272"/>
    <path d="M47.385,62.355 C53.45,62.355 58.479,66.808 59.368,72.631 L65.539,72.631 C66.43,66.808 71.458,62.355 77.522,62.355 C84.223,62.355 89.657,67.786 89.657,74.485 C89.657,81.181 84.223,86.615 77.522,86.615 C71.493,86.615 66.492,82.204 65.553,76.441 L59.355,76.441 C58.424,82.204 53.418,86.615 47.385,86.615 C41.348,86.615 36.347,82.214 35.416,76.441 L35.396,76.441 L35.396,116.086 L31.597,116.086 L31.597,72.586 L35.396,72.586 L35.396,72.631 C36.292,66.808 41.311,62.355 47.385,62.355 z" fill="#EBECEC"/>
    <path d="M77.522,65.703 C72.673,65.703 68.74,69.636 68.74,74.485 C68.74,79.341 72.673,83.267 77.522,83.267 C82.376,83.267 86.309,79.341 86.309,74.485 C86.309,69.636 82.376,65.703 77.522,65.703 z" fill="#737370"/>
    <path d="M47.385,65.703 C42.53,65.703 38.602,69.636 38.602,74.485 C38.602,79.341 42.53,83.267 47.385,83.267 C52.241,83.267 56.172,79.341 56.172,74.485 C56.172,69.636 52.241,65.703 47.385,65.703" fill="#737370"/>
    <path d="M63.072,57.867 C72.608,57.784 84.176,54.825 90.433,48.158 C93.333,44.897 96.146,39.919 94.434,35.543 C94.25,35.543 93.839,35.511 93.625,35.48 C82.911,52.542 43.006,52.199 32.52,35.48 C32.305,35.511 31.894,35.543 31.712,35.543 C29.999,39.919 32.812,44.897 35.712,48.158 C41.968,54.825 53.537,57.784 63.072,57.867 z M42.142,6 L84.002,6 L80.395,39.124 C75.7,41.393 69.676,42.809 63.072,42.938 C56.468,42.809 50.444,41.393 45.749,39.124 z" fill="#EBECEC"/>
    <path d="M6,72.887 C8.557,76.907 15.472,87.227 21.468,91.237 C36.086,101.006 57.172,95.22 63.173,114.41 C63.776,116.351 63.99,118.488 64,120.494 C64.008,118.488 64.224,116.351 64.826,114.41 C70.828,95.22 91.912,101.006 106.532,91.237 C112.528,87.227 119.442,76.907 122,72.887 L122,109.907 C122,116.561 116.561,122 109.907,122 L18.093,122 C11.439,122 6,116.561 6,109.907 z" fill="#84D0F4"/>
  </g>
  <defs/>
</svg>
